<?xml version="1.0" encoding="UTF-8"?><svg xmlns="http://www.w3.org/2000/svg" xmlns:xlink="http://www.w3.org/1999/xlink" viewBox="0 0 1869 1237"><defs><style>.e{opacity:.7;}.f{fill:#f6752a;}.g{fill:#f78645;}.h{opacity:.8;}.i{clip-path:url(#c);}.j{fill:none;}.k{fill:#fff;font-family:NothingYouCouldDo, Nothing You Could Do;font-size:410.94px;}</style><clipPath id="c"><path class="j" d="M1268.35,619.54c0,247.03-200.24,447.27-447.27,447.27s-447.27-200.24-447.27-447.27c0-31.17,3.19-61.58,9.24-90.93,1.15-5.46,2.37-10.88,3.68-16.27,3.12-12.59,6.74-25.02,10.91-37.15,1.84-5.49,3.81-10.88,5.88-16.27,.59-1.55,1.18-3.09,1.81-4.64,2.17-5.46,4.47-10.91,6.87-16.27,5.62-12.69,11.87-25.08,18.64-37.15,9.63-17.16,20.35-33.63,32.09-49.28,4.14-5.52,8.42-10.95,12.82-16.27,81.99-99.55,206.26-163.03,345.32-163.03,247.03,0,447.27,200.24,447.27,447.27Z"/></clipPath></defs><g id="a"/><g id="b"><g><g><g class="h"><path class="g" d="M1205.76,322.75c2.79,3.39,5.33,7.17,8.15,10.95,2.73,3.85,5.75,7.73,8.52,11.9,5.46,8.45,11.54,17.19,16.93,26.83,2.73,4.8,5.82,9.5,8.32,14.6,2.63,5.03,5.29,10.13,7.99,15.25,2.6,5.19,4.93,10.55,7.43,15.88,1.22,2.66,2.5,5.33,3.65,8.02l3.32,8.19c11.08,26.43,19.07,53.98,24.59,79.26h5.72c-.95-5.06-2.07-10.13-3.06-15.25-5.72-26.93-14.17-53.82-22.75-75.61-2.3-5.39-4.47-10.49-6.51-15.25-1.02-2.4-2-4.7-2.96-6.9-1.05-2.14-2.07-4.21-3.02-6.15-3.88-7.79-6.84-14.04-9.04-17.82-7.07-11.01-12.3-20.74-16.34-23.14-3.09-4.83-6.11-9.53-9.07-14.17-3.22-4.47-6.35-8.84-9.47-13.18-1.58-2.14-3.09-4.31-4.7-6.41-1.64-2.07-3.29-4.11-4.93-6.18-3.32-4.08-6.61-8.12-9.93-12.2-3.48-3.91-7-7.82-10.55-11.77-1.78-1.97-3.52-3.98-5.39-5.92-1.87-1.91-3.78-3.85-5.72-5.79-3.85-3.85-7.66-7.89-11.8-11.77-4.18-3.85-8.42-7.79-12.82-11.84-45.7-40.17-98.63-70.42-155.37-91-56.84-20.55-117.56-31.56-181.18-33.27-2.7,0-6.48,.16-10.78,.46-4.31,.36-9.17,.59-14.07,1.38-9.8,1.45-19.82,2.7-26.1,4.04l-17.13,2.24-17,2.93c-2.83,.53-5.69,.92-8.51,1.55l-8.42,1.84c-5.62,1.32-11.31,2.3-16.9,3.85-22.42,5.56-44.41,12.89-66.08,21.4-21.53,8.78-42.48,19.26-62.66,31.17-20.09,12.13-39.22,25.97-57.2,41.26-22.22,18.74-43.82,39.16-63.45,61.51-19.63,22.36-37.25,46.62-51.35,72.19-33.3,61.05-54.15,128.81-60.59,198.77-6.44,69.83,1.18,142.12,25.22,210.57,1.28-2.86,5.88,6.77,10.95,18.94,2.79,5.98,5.72,12.56,8.32,18.61,2.66,6.02,5.39,11.28,7.07,14.93,33.83,66.18,82.55,122.92,138.47,166.68,56.12,43.76,120,73.81,184.07,90.11,31.99,7.5,63.91,11.64,96.09,12.82,32.22,1.18,64.8-.53,98.23-5.65,67.46-10.75,128.21-33.4,182.29-65.75,53.98-32.45,101.58-74.89,139.95-128.21,3.03-4.34,6.05-8.68,9.04-13.02l8.48-13.35c4.77-7.23,8.91-14.86,13.18-22.42h-12c-11.11,18.9-23.67,36.85-36.79,54.11-20.68,25.38-44.87,51.91-71.96,75.55-2.89,2.47-6.74,5.46-10.98,8.71-4.27,3.22-8.81,6.87-13.54,10.16-9.53,6.41-18.8,12.56-24.85,14.63,45.2-29.46,85.48-66.31,118.29-108.82,13.45-17.29,25.74-35.47,36.79-54.34h-10.22c-5.49,9.01-11.21,17.92-17.19,26.69-2.53,3.19-5.1,6.41-7.63,9.6l-3.85,4.8-4.01,4.64c2.63-2.63,5.29-5.26,7.79-8.15-2.43,3.58-5.16,6.97-7.82,10.42-2.66,3.48-5.36,6.94-8.02,10.39-5.79,6.61-11.7,12.99-17.85,19.26-.03,.03-.1,.07-.13,.13-1.55,1.58-3.12,3.16-4.7,4.7-58.85,58.42-132.69,101.06-212.08,122.2-89.88,24.1-186.47,20.91-273.56-9.11-87.15-29.82-164.25-86.46-218.75-159.48-6.97-8.97-13.15-18.57-19.49-28.01l-8.84-14.56-2.2-3.65-2.04-3.75-4.08-7.5c-10.68-20.02-20.15-40.7-27.55-62.1-15.22-42.64-23.77-87.48-25.58-132.45-.49-11.57-.49-23.21-.03-34.82,1.32-36.79,7.13-73.61,16.96-109.25,.07-.2,.13-.43,.2-.66,13.87-50.14,35.77-97.97,64.47-140.15,2.33-3.48,4.9-7.27,7.73-11.18,2.99-3.75,6.18-7.69,9.43-11.8,3.22-4.14,6.94-8.09,10.65-12.13,3.75-4.04,7.4-8.28,11.47-12.1,15.48-16.11,32.74-30.21,45.24-41.36,57.76-48.89,131.01-82.29,206.33-94.81,2.33-.39,4.67-.89,7.03-1.22l7.1-.95c4.7-.62,9.43-1.25,14.14-1.87,4.73-.39,9.47-.79,14.17-1.15,4.73-.43,9.44-.89,14.17-.92l14.1-.49c4.7-.3,9.4,.03,14.07,0,4.7,.1,9.37,0,14.04,.26,4.64,.26,9.27,.53,13.91,.82,37.05,2.27,72.95,9.21,106.85,18.9,17.1,5.79,33.63,13.12,49.9,20.81-18.54-10.36-40.37-19.36-59.14-25.18-2.17-.89-4.14-1.51-5.52-2.17-5.92-1.35-8.84-1.97-11.77-2.66-24-8.02-54.11-14.43-87.81-16.6-33.63-2.24-70.85-.36-108.13,7.2-4.67,.95-9.34,1.91-14,2.86-4.64,1.22-9.27,2.4-13.94,3.62l-6.97,1.81c-2.33,.62-4.6,1.41-6.9,2.1-4.6,1.45-9.21,2.89-13.81,4.34-18.21,6.48-36.26,13.41-53.36,22.06-34.52,16.54-65.72,37.61-92.68,59.41-1.94,1.55-3.91,3.02-5.82,4.64l-5.62,4.9c-3.72,3.25-7.56,6.41-11.18,9.8-7.13,6.87-14.5,13.51-21.21,20.81-13.84,14.1-26.4,29.39-38.2,45.17,.89-1.51,1.84-3.09,2.83-4.77,1.05-1.64,2.17-3.35,3.32-5.13,2.33-3.55,4.83-7.36,7.4-11.28,2.66-3.85,5.62-7.63,8.48-11.41,2.93-3.75,5.79-7.5,8.88-10.72,29.1-31.69,64.47-60.43,102.7-82.85,18.94-11.47,38.76-21.04,58.49-29.42,19.69-8.58,39.62-14.96,58.85-20.68-19.66,4.47-38.83,9.37-57.7,16.37-9.57,3.19-18.84,7.33-28.37,11.37-4.73,2.1-9.37,4.57-14.14,6.9-2.37,1.18-4.73,2.4-7.13,3.58-2.33,1.35-4.67,2.7-7,4.04-4.64,2.73-9.63,5.59-14.5,9.07-4.83,3.48-9.8,7.1-14.76,10.72-9.57,7.63-19,15.02-26.96,21.17-20.74,16.04-38.89,33.3-55.1,51.29-16.01,18.15-30.02,37.02-42.61,56.55-12.72,19.46-23.47,39.91-33.34,61.12-5.1,10.52-9.37,21.53-13.94,32.61-2.04,5.62-4.11,11.28-6.21,16.96-2.14,5.72-3.78,11.64-5.79,17.49-.76,2.4-1.58,4.57-2.4,6.58-.72,2.04-1.48,3.94-2.2,5.88-1.28,3.35-2.56,6.71-3.55,10.75,12.59-55.72,33.96-106.25,63.15-152.11,29.59-46.26,67.49-88.01,115.46-122.43,3.91-2.63,7.66-5.13,11.24-7.53,3.68-2.2,7.27-4.37,10.75-6.44,3.48-2.04,6.8-4.24,10.29-6.08s6.94-3.71,10.45-5.59c14.14-8.84,27.88-16.01,40.07-21.4,32.88-14.2,59.73-22.45,83.01-28.73,2.89-.82,5.75-1.61,8.55-2.4,2.83-.62,5.59-1.28,8.32-1.91,5.46-1.25,10.72-2.63,15.88-3.71,10.39-1.87,20.28-4.18,30.25-5.39,5-.69,9.96-1.45,14.99-2.07,5.06-.43,10.19-.85,15.42-1.28,2.6-.2,5.26-.39,7.92-.59,2.7-.03,5.42-.1,8.19-.16,5.52-.03,11.21-.23,17.16-.07,23.7,.72,51.25,3.75,85.05,12.89-31.13-8.15-72.98-12.23-111.71-9.86-19.4,1.41-37.97,3.62-54.18,6.9-8.09,1.64-15.65,3.06-22.39,4.96-6.77,1.84-12.85,3.16-17.95,4.9,20.02-4.5,45.43-9.2,74.1-11.28,28.6-2.14,60.36-1.64,92.22,2.56,31.86,4.11,63.75,11.93,92.64,22.39,28.93,10.39,54.84,23.34,75.75,36.03,25.41,15.58,42.15,28.9,55.53,39.22,6.48,5.39,12.13,10.09,17.29,14.4,5.03,4.47,9.6,8.51,14.1,12.49,8.75,8.22,17.36,16.01,27.62,27.16,10.42,10.98,22.72,25.25,37.91,46.88,6.58,9.34,23.87,33.99,39.25,63.75,7.82,14.79,14.89,30.9,20.84,46.22,1.61,3.78,2.83,7.63,4.11,11.34,1.28,3.75,2.5,7.36,3.68,10.88,1.28,3.48,2.17,6.94,3.09,10.22,.89,3.29,1.74,6.41,2.53,9.34-9.04-39.98-22.45-73.11-36.23-100.17-13.81-27.16-27.98-48.29-39.65-65.72-19.95-27.06-44.25-53.75-70.85-77.06-26.56-23.41-55.59-43-83.11-58.26-27.55-15.25-53.65-26-74.43-33.37-5.26-1.71-10.16-3.26-14.63-4.7-4.5-1.48-8.55-2.83-12.26-3.75-7.4-2.04-12.95-3.55-16.4-4.5-3.42-.95-4.77-1.25-3.55-1.15,1.25,.07,4.93,.89,11.44,2.47,3.25,.79,7.23,1.74,11.97,2.89,4.7,1.25,10.06,2.96,16.27,4.8,6.25,1.71,13.05,4.27,20.74,7,7.76,2.6,16.01,6.25,25.22,10.03,18.15,8.12,39.48,18.41,62.86,33.24,23.31,14.86,49.08,33.73,75.12,58.98,6.38,6.44,13.25,12.82,19.59,20.05,3.22,3.58,6.58,7.17,9.86,10.88,3.16,3.81,6.38,7.69,9.63,11.61,1.61,2,3.32,3.94,4.9,5.98,1.58,2.07,3.12,4.14,4.7,6.25,3.12,4.24,6.44,8.42,9.57,12.85,6.05,8.94,12.46,18.05,18.21,27.91,6.18,9.67,11.54,20.09,17.29,30.71,2.63,5.42,5.26,10.91,7.96,16.5,2.76,5.52,4.96,11.41,7.53,17.23,9.24,22.32,17.33,46.42,23.54,72.29,.26,1.05,.53,2.1,.79,3.16-.1-.43-.16-.92-.26-1.45-.13-.53-.23-1.09-.36-1.71-1.71-7.99-5.33-24.3-11.64-44.58-7.63-24.49-19.86-54.51-35.08-82.55-15.06-28.11-33.14-54.01-48.23-72.72-1.87-2.33-3.62-4.67-5.39-6.77-1.81-2.1-3.52-4.08-5.13-5.98-3.22-3.78-6.08-7.13-8.52-9.96-5-5.49-8.19-8.91-8.81-9.83-.89-1.51,15.94,13.94,37.38,41.52Zm-744,23.8c-65.03,85.67-98.4,193.8-92.31,300.81,4.77,107.01,49.44,211.55,123.18,290.59,36.85,39.52,80.71,72.75,129.23,97.61,48.49,24.99,101.82,40.83,156.49,47.5,6.87,.69,13.71,1.61,20.58,2.07l20.68,1.15,20.74,.13c3.45,.1,6.94-.07,10.39-.23l10.36-.49c27.68-1.55,55.3-5.49,82.45-11.87,54.38-12.66,106.55-35.74,153.53-67.1-29.06,21.04-60.89,39.19-95.47,52.9-6.18,2.3-12.26,4.83-18.48,6.9-6.21,2.04-12.43,4.08-18.64,6.12-12.56,3.52-25.05,7.03-37.71,9.53l-9.47,2.01-9.53,1.58-9.47,1.55-4.77,.76-4.77,.53c-6.34,.72-12.69,1.41-19,2.1-6.38,.36-12.69,.76-19.04,1.12-5.23,.33-10.45,.16-15.68,.1-5.19-.1-10.39-.1-15.58-.26-5.16-.36-10.32-.69-15.48-1.02l-7.69-.53-7.69-.89c-5.1-.59-10.19-1.22-15.29-1.81-5.06-.72-10.09-1.68-15.12-2.5-10.09-1.51-19.99-4.01-29.88-6.18-4.96-1.02-9.83-2.63-14.73-3.91-4.83-1.41-9.8-2.53-14.56-4.24-9.6-3.22-19.23-6.18-28.6-10.03-18.9-7.04-37.12-15.88-55-25.22-35.5-19.36-69.07-42.8-99.51-71.01-7.79-6.84-14.96-14.43-22.45-21.8-3.62-3.81-7.1-7.73-10.68-11.61l-5.36-5.85-5.1-6.11c-13.91-16.04-26.56-33.57-38.6-51.88,18.15,28.7,37.22,53.36,56.94,75.28,19.73,21.86,40.11,41.03,61.51,58.22-44.19-32.51-81.93-72.75-111.91-117.99-2.07-2.79-4.14-5.59-6.18-8.35-1.91-2.86-3.75-5.72-5.59-8.51-3.65-5.62-7.17-11.14-10.03-16.73-2.43-4.47-4.87-8.91-7.3-13.35-2.2-4.57-4.44-9.11-6.64-13.68-11.37-26.5-19.76-52.8-26.33-80.18-35.18-139.23-3.71-286.67,83.57-395.23Zm77.78-101.45c-24.92,20.09-50.23,44.32-73.58,72.46-23.37,28.11-44.18,60.43-61.35,94.98-8.28,17.16-15.62,34.85-21.86,52.9-.07,.26-.16,.53-.26,.76-.13,.33-.23,.69-.36,1.05-1.71,5.06-3.35,10.13-4.9,15.22-.1,.26-.16,.53-.23,.79-.1,.36-.2,.69-.3,1.05-.53,1.84-1.12,3.78-1.71,5.85-.36,1.25-.72,2.47-1.09,3.71-.07,.26-.13,.53-.23,.82v.03c-.56,2.01-1.09,4.01-1.64,6.05-.07,.39-.16,.79-.26,1.18-1.22,5.1-2.56,10.68-3.98,16.77-.23,1.02-.46,2.04-.69,3.09-10.95,55.07-12.1,112.76-3.19,169.6-.46-2.76-.99-5.36-1.35-7.82-.33-2.47-.62-4.77-.89-6.87-.56-4.14-1.05-7.43-1.41-9.53-2.47-22.91-3.42-44.64-2.66-64.73,.23-5.03,.2-9.96,.56-14.73,.39-4.8,.76-9.5,1.15-14.07,.16-2.3,.36-4.57,.53-6.81,.3-2.2,.59-4.41,.85-6.58,.59-4.34,1.15-8.55,1.68-12.66,2.27-15.48,5.13-29.06,7.99-40.63,7.07-30.08,17.1-59.27,29.62-87.09l2.7-6.08c.92-2.01,1.97-3.98,2.96-5.95l5.92-11.87c1.91-4.01,4.27-7.76,6.38-11.64l6.51-11.51c9.24-14.99,18.8-29.75,29.52-43.59,21.17-27.81,45.14-53.26,71.5-75.51,26.37-22.22,54.97-41.39,85.05-57.2-21.57,12.59-46.06,28.47-70.98,48.56Z"/><path class="g" d="M1011.41,1041.84c60-23.14,116.14-60.14,162.65-106.26-19.14,16.24-36.73,29.35-60.61,45.61-4.01,2.76-8.05,5.54-12.11,8.34-4.17,2.64-8.37,5.29-12.59,7.96-2.1,1.34-4.21,2.68-6.32,4.03-2.17,1.26-4.35,2.52-6.53,3.79-4.35,2.53-8.73,5.07-13.12,7.63-4.5,2.36-9.01,4.74-13.55,7.12l-6.79,3.59-6.98,3.28c-4.65,2.19-9.32,4.38-14,6.58-4.77,1.99-9.54,3.98-14.33,5.98-4.74,2.09-9.62,3.84-14.51,5.59-4.89,1.73-9.71,3.64-14.65,5.22-9.93,3-19.74,6.33-29.82,8.64-19.93,5.36-40.22,8.61-60.13,10.93-28.65,3.08-57.66,3.37-86.48,1.09-28.82-2.27-57.47-7.14-85.45-14.67-55.98-15.01-109.25-40.76-156.02-75.71-46.8-34.89-87.09-78.93-117.68-129.19-30.64-50.22-51.48-106.67-60.51-165.31-.21-1.44-.46-3.11-.73-4.95-.2-1.85-.41-3.89-.64-6.06-.5-4.34-1.07-9.24-1.67-14.38-.43-5.16-.87-10.55-1.32-15.87-.25-2.66-.5-5.3-.74-7.88-.14-2.59-.29-5.11-.42-7.54,.88,74.92,21.2,148.54,57.46,212.78,2.13,4.1,4.59,8,7,11.93l7.24,11.78,7.77,11.43,3.88,5.72,4.14,5.52,8.29,11.05c2.85,3.61,5.85,7.1,8.76,10.66,5.71,7.23,12.12,13.84,18.26,20.68,25.2,26.81,53.78,50.31,84.51,70.48,30.89,19.95,64.21,36.1,98.97,48.36,34.83,12.1,71.22,19.83,108.14,23.49,36.95,3.73,74.46,2.76,111.56-2.46,4.63-.7,9.3-1.2,13.91-2.07l13.83-2.65,6.93-1.34,6.85-1.67,13.73-3.34c4.56-1.18,9.05-2.63,13.59-3.93,4.51-1.4,9.12-2.52,13.55-4.19,8.91-3.17,17.97-6.04,26.69-9.78Z"/><path class="g" d="M522.97,291.67c15.61-14.7,32.05-28.59,49.48-40.77,17.49-12.03,35.49-23.01,54.04-31.9-17.27,7.21-36.8,17.8-55.8,30.15-19.03,12.33-36.95,27.11-52.2,41.04-42.31,39.89-76.57,88.13-100.36,140.26,25.48-51.36,60.73-98.33,104.85-138.77Z"/><path class="g" d="M376.35,629.38c.03-5.98-.2-11.95,.02-17.94,.27-5.98,.54-11.99,.82-18.03,3.68-55.18,17.07-110.95,40.93-162.96-26.85,54.18-42.78,113.54-45.7,175.07,1.06-.03,1.8,2.54,2.29,6.82,.55,4.27,1.24,10.25,1.64,17.05Z"/></g><path class="g" d="M1291.96,517.54c-.3-1.31-.62-2.6-.95-3.91h.16c.33,1.68,.59,2.99,.79,3.91Z"/></g><text class="k" transform="translate(841.52 854.75)"><tspan x="0" y="0">TORI</tspan></text><g class="i"><g class="e"><path d="M431.25,302.41c-21.92,29.23-41.94,59.99-59.93,92.05-12.65,22.54-24.32,45.69-34.82,69.39H188.95v35.8h-26.04v33.65h146.39c-7.8,22.66-14.55,45.87-20.39,69.39h-126v528.82h26.04v89.77H67.49v-89.77h26.04V602.68H-14.18v-69.39H93.53v-33.65h-26.04v-35.8H-14.18l-22.41-69.39h-29.6s-84.25-112.25-77.31-145.47c7,14.37,86.52,52.56,105.37,53.05,9.46,.25,247.34,.37,469.38,.37Z"/><g><path class="f" d="M587.83,499.77v-35.83H189.84v35.8h-26.04v33.63h450.1v-33.6h-26.07Zm-30.18,3.22H220.09c.07-1.12,.13-2.17,.13-3.25v-5.42h337.24v5.49c0,.49,0,1.02,.07,1.51v.49c.07,.39,.07,.76,.13,1.12v.07Zm30.18-3.22v-35.83H189.84v35.8h-26.04v33.63h450.1v-33.6h-26.07Zm-30.18,3.22H220.09c.07-1.12,.13-2.17,.13-3.25v-5.42h337.24v5.49c0,.49,0,1.02,.07,1.51v.49c.07,.39,.07,.76,.13,1.12v.07Zm30.18-3.22v-35.83H189.84v35.8h-26.04v33.63h450.1v-33.6h-26.07Zm-30.18,3.22H220.09c.07-1.12,.13-2.17,.13-3.25v-5.42h337.24v5.49c0,.49,0,1.02,.07,1.51v.49c.07,.39,.07,.76,.13,1.12v.07Zm30.18-3.22v-35.83H189.84v35.8h-26.04v33.63h450.1v-33.6h-26.07Zm-30.18,3.22H220.09c.07-1.12,.13-2.17,.13-3.25v-5.42h337.24v5.49c0,.49,0,1.02,.07,1.51v.49c.07,.39,.07,.76,.13,1.12v.07Zm30.18-3.22v-35.83H189.84v35.8h-26.04v33.63h450.1v-33.6h-26.07Zm-30.18,3.22H220.09c.07-1.12,.13-2.17,.13-3.25v-5.42h337.24v5.49c0,.49,0,1.02,.07,1.51v.49c.07,.39,.07,.76,.13,1.12v.07ZM950.09,242.88c-.07-.26-.13-.49-.2-.76-.1-.43-.16-.79-.3-1.22-.13-.43-.26-.79-.36-1.22-.13-.36-.26-.76-.36-1.12-.2-.43-.39-.85-.56-1.28-.13-.3-.26-.62-.36-.92-.26-.49-.49-.92-.69-1.41-.2-.26-.3-.49-.43-.79-.3-.49-.62-.99-.92-1.48-.13-.2-.26-.36-.36-.56-.43-.69-.92-1.35-1.41-1.97-.56-.66-1.05-1.28-1.61-1.84l-1.71-1.71c-.26-.26-.56-.43-.79-.69-.39-.3-.69-.59-1.05-.85-.33-.23-.62-.43-.92-.66-.36-.26-.76-.49-1.05-.76-.36-.16-.69-.43-.99-.59-.43-.26-.79-.46-1.15-.69-.33-.13-.69-.3-.99-.49-.43-.2-.82-.36-1.25-.56-.36-.16-.66-.3-1.02-.43-.43-.16-.85-.36-1.32-.49-.36-.1-.66-.23-1.02-.36-.43-.13-.92-.23-1.41-.36-.26-.07-.49-.2-.69-.2-.13-.07-.23-.07-.36-.13l-1.12-.16c-.43-.07-.85-.13-1.28-.2-.13-.07-.23-.07-.3-.07-.33-.03-.56-.03-.79-.03-.39-.07-.76-.13-1.12-.13s-.76-.07-1.12-.07h-1.15c-.36,0-.69,0-1.05,.07-.36,0-.79,0-1.15,.07-.39,0-.69,.07-1.05,.1-.69,.07-1.41,.2-2.1,.33-.36,.07-.72,.1-1.08,.23-.39,.07-.69,.2-1.05,.26-.36,.1-.69,.16-1.05,.3-.36,.13-.66,.26-1.05,.36-.36,.13-.66,.2-.95,.33-.39,.16-.76,.3-1.05,.49-.33,.1-.69,.23-.99,.36-.3,.16-.69,.36-.99,.56-.3,.1-.62,.3-.92,.46-.3,.2-.69,.39-.99,.56-.3,.2-.56,.39-.85,.56-.3,.2-.63,.43-.92,.62-.3,.23-.56,.43-.85,.59-.33,.26-.62,.49-.85,.76-.33,.23-.56,.43-.82,.66-.3,.26-.53,.49-.85,.76-.23,.3-.49,.56-.72,.79-.33,.26-.56,.56-.79,.79-.26,.33-.49,.62-.76,.92-.23,.26-.43,.49-.66,.76-.39,.49-.69,.99-1.05,1.48-.07,.1-.2,.16-.26,.3-3.48,3.06-15.02,10.75-34.91,20.68-1.38,.69-2.73,1.38-4.14,2.04-.72,.3-1.41,.69-2.07,.99-22.13,10.55-36.36,15.22-40.4,15.98-13.28,.16-158.06,.3-357.45,.3h-67.59c-204.06,0-408.05-.13-424.26-.3-4.18-.82-19.2-5.65-42.54-16.96-22.42-10.91-35.31-19.46-39.06-22.72-6.31-9.4-17.49-14.66-29-13.22-12.89,1.61-23.31,11.24-26.04,23.97-3.35,16.14-1.22,41.62,40.11,107.5,20.65,32.94,41.82,61.18,42.67,62.4,5.72,7.63,14.76,12.1,24.33,12.1h7.49l15.58,48.39c4.04,12.53,15.71,21.04,28.93,21.04H37.99v5.42c0,1.08,.03,2.14,.1,3.25H-13.29c-16.77,0-30.41,13.58-30.41,30.38v69.4c0,16.77,13.64,30.41,30.41,30.41H64v468.31c-14.73,2.17-26,14.79-26,30.11v89.75c0,16.77,13.55,30.41,30.38,30.41h121.47c16.8,0,30.38-13.64,30.38-30.41v-89.75c0-15.32-11.31-27.94-26.04-30.11v-468.31h389.31v468.31s-.07,0-.07,.07c-.85,.07-1.64,.26-2.43,.43-.13,0-.26,.07-.39,.07-.72,.2-1.51,.43-2.27,.69-.13,.07-.23,.07-.36,.1-.72,.26-1.48,.56-2.2,.89-.13,.03-.2,.1-.33,.1l-2.2,1.12s-.07,.07-.13,.07c-.72,.43-1.41,.85-2.07,1.28-.07,0-.07,.07-.13,.07-.66,.49-1.35,.92-1.97,1.48-.03,.07-.16,.1-.23,.16-.62,.49-1.18,.99-1.71,1.55-.13,.07-.2,.2-.33,.23-.53,.56-1.09,1.12-1.58,1.74-.07,.07-.2,.16-.26,.23-.49,.62-.99,1.25-1.48,1.84-.03,.07-.1,.2-.16,.26-.49,.66-.92,1.35-1.35,2.01q0,.07-.07,.13c-.43,.69-.79,1.41-1.18,2.17,0,.03-.03,.1-.03,.16-.39,.76-.69,1.48-.99,2.2-.07,.13-.13,.26-.13,.33-.3,.72-.56,1.51-.72,2.27-.07,.13-.13,.23-.13,.36-.26,.79-.43,1.61-.56,2.33-.07,.13-.07,.3-.07,.43-.2,.79-.23,1.61-.36,2.47v.23c-.07,.85-.13,1.78-.13,2.66v89.75c0,8.42,3.39,15.98,8.91,21.5,5.46,5.46,13.08,8.91,21.5,8.91h121.51c16.77,0,30.41-13.64,30.41-30.41v-89.75c0-.89-.07-1.81-.13-2.66,0-.07,0-.16-.07-.23-.07-.85-.2-1.68-.3-2.47-.07-.13-.07-.3-.07-.43-.2-.72-.36-1.55-.56-2.27-.07-.2-.07-.3-.13-.43-.23-.76-.49-1.55-.72-2.27-.07-.07-.13-.2-.13-.33-.3-.72-.63-1.45-.99-2.2,0-.07-.07-.13-.1-.16-.33-.76-.76-1.48-1.18-2.17q0-.07-.07-.13c-.36-.66-.86-1.35-1.35-2.01-.07-.07-.07-.2-.13-.26-.49-.59-.99-1.22-1.45-1.84-.13-.07-.2-.16-.26-.23-.56-.62-1.05-1.18-1.61-1.74-.1-.03-.16-.16-.3-.23-.56-.56-1.15-1.05-1.71-1.55-.13-.07-.2-.1-.3-.16-.62-.56-1.25-.99-1.91-1.48-.07,0-.13-.07-.13-.07-.69-.43-1.41-.85-2.1-1.28-.07,0-.1-.07-.16-.07-.69-.36-1.41-.72-2.17-1.12-.1,0-.23-.07-.3-.1-.72-.33-1.48-.62-2.2-.89-.13-.03-.26-.03-.43-.1-.76-.26-1.48-.49-2.27-.69-.13,0-.26-.07-.39-.07-.79-.16-1.58-.36-2.37-.43,0-.07-.07-.07-.13-.07v-468.31h77.29c16.83,0,30.41-13.64,30.41-30.41v-69.4c0-1.09-.07-2.07-.13-3.12-1.58-15.35-14.5-27.25-30.28-27.25h-51.38v-.07c.07-.36,.07-.72,.07-1.12,.07-.16,.07-.3,.07-.49,0-.49,.07-1.02,.07-1.51v-5.49h51.19c13.22,0,24.89-8.51,28.93-21.04l15.65-48.39h7.43c9.6,0,18.61-4.47,24.33-12.1,.3-.43,3.52-4.67,8.48-11.6l.07-.07c.36-.49,.72-1.05,1.09-1.55,.2-.3,.39-.53,.56-.85,.26-.3,.49-.59,.69-.92,.23-.36,.53-.72,.79-1.09,.2-.2,.3-.43,.49-.69,.3-.43,.62-.85,.92-1.35,.2-.2,.3-.36,.43-.56,.36-.49,.69-.99,1.05-1.51,.1-.13,.23-.26,.3-.46,.43-.53,.79-1.09,1.22-1.71,.07-.07,.13-.13,.2-.23,.43-.62,.85-1.31,1.35-1.91,0-.07,.07-.13,.07-.13,4.41-6.38,9.4-13.68,14.63-21.57,.03-.03,.1-.16,.1-.23,.56-.72,1.05-1.55,1.54-2.27,.13-.2,.23-.36,.36-.56,.43-.72,.92-1.41,1.35-2.14,.2-.26,.33-.49,.49-.76,.43-.59,.85-1.28,1.28-1.94,.07-.13,.13-.26,.26-.39,.07-.1,.13-.23,.23-.36,.62-.99,1.31-2.04,1.91-3.06,.2-.26,.36-.56,.56-.85,.69-1.05,1.35-2.1,1.97-3.16,1.28-2.01,2.56-4.04,3.81-6.02,.16-.3,.36-.59,.53-.92,1.05-1.78,2.17-3.55,3.22-5.26,.1-.2,.16-.39,.3-.56,.92-1.55,1.84-3.12,2.76-4.6,.2-.33,.36-.62,.49-.92,.92-1.61,1.84-3.16,2.7-4.67,.26-.43,.49-.85,.76-1.28,.59-1.05,1.22-2.17,1.78-3.22,.3-.53,.59-1.08,.92-1.58,.66-1.25,1.35-2.47,1.94-3.68,.46-.82,.89-1.61,1.31-2.33,.23-.49,.49-.92,.72-1.41,21.07-40.04,21.86-58.72,19.17-71.54Zm-107.11,151.65h-29.59l-22.42,69.4h-81.6v35.83h-26.07v33.6h107.67v69.4h-107.67v528.83h26.07v89.75h-121.54v-89.75h26.07V602.77H163.81v528.83h26.04v89.75H68.37v-89.75h26.04V602.77H-13.29v-69.4H94.41v-33.63h-26.04v-35.8H-13.29l-22.42-69.4h-29.59s-84.26-112.24-77.32-145.47c7,14.4,86.53,52.57,105.37,53.06,9.47,.26,247.36,.36,469.4,.36,193.31,0,374.62-.1,382.87-.36,18.77-.49,98.3-38.66,105.3-53.06,6.94,33.24-77.32,145.47-77.32,145.47Zm-255.15,69.4H189.84v35.8h-26.04v33.63h450.1v-33.6h-26.07v-35.83Zm-30.18,39.06H220.09c.07-1.12,.13-2.17,.13-3.25v-5.42h337.24v5.49c0,.49,0,1.02,.07,1.51v.49c.07,.39,.07,.76,.13,1.12v.07Zm30.18-3.22v-35.83H189.84v35.8h-26.04v33.63h450.1v-33.6h-26.07Zm-30.18,3.22H220.09c.07-1.12,.13-2.17,.13-3.25v-5.42h337.24v5.49c0,.49,0,1.02,.07,1.51v.49c.07,.39,.07,.76,.13,1.12v.07Zm30.18-3.22v-35.83H189.84v35.8h-26.04v33.63h450.1v-33.6h-26.07Zm-30.18,3.22H220.09c.07-1.12,.13-2.17,.13-3.25v-5.42h337.24v5.49c0,.49,0,1.02,.07,1.51v.49c.07,.39,.07,.76,.13,1.12v.07Zm30.18-3.22v-35.83H189.84v35.8h-26.04v33.63h450.1v-33.6h-26.07Zm-30.18,3.22H220.09c.07-1.12,.13-2.17,.13-3.25v-5.42h337.24v5.49c0,.49,0,1.02,.07,1.51v.49c.07,.39,.07,.76,.13,1.12v.07Z"/><path d="M432.14,302.49c-21.93,29.26-41.95,60-59.93,92.05-12.66,22.55-24.33,45.7-34.81,69.4H189.84v35.8h-26.04v33.63h146.39c-7.82,22.68-14.56,45.89-20.42,69.4h-125.98v528.83h26.04v89.75H68.37v-89.75h26.04V602.77H-13.29v-69.4H94.41v-33.63h-26.04v-35.8H-13.29l-22.42-69.4h-29.59s-84.26-112.24-77.32-145.47c7,14.4,86.53,52.57,105.37,53.06,9.47,.26,247.36,.36,469.4,.36Z"/></g></g></g></g></g><g id="d"/></svg>